<?xml version="1.0" encoding="utf-8"?>
<!-- Generator: Adobe Illustrator 17.1.0, SVG Export Plug-In . SVG Version: 6.00 Build 0)  -->
<!DOCTYPE svg PUBLIC "-//W3C//DTD SVG 1.1//EN" "http://www.w3.org/Graphics/SVG/1.1/DTD/svg11.dtd">
<svg version="1.1" id="Layer_1" xmlns="http://www.w3.org/2000/svg" xmlns:xlink="http://www.w3.org/1999/xlink" x="0px" y="0px"
	 viewBox="0 0 1200 840" enable-background="new 0 0 1200 840" xml:space="preserve">
<rect x="-152.7" y="574.5" transform="matrix(0.7071 -0.7071 0.7071 0.7071 -355.6837 292.3038)" fill="#A18584" width="655.5" height="2"/>
<rect x="696.3" y="573.8" transform="matrix(0.7071 0.7071 -0.7071 0.7071 707.2843 -558.0351)" fill="#9788A4" width="661.9" height="2"/>
<rect x="262.6" y="655" transform="matrix(0.7071 -0.7071 0.7071 0.7071 -331.3279 512.104)" fill="#A18584" width="379.7" height="2"/>
<rect x="556.6" y="655" transform="matrix(0.7071 0.7071 -0.7071 0.7071 682.5071 -335.7173)" fill="#9788A4" width="379.7" height="2"/>
<rect x="55" y="427" transform="matrix(0.7071 0.7071 -0.7071 0.7071 357.132 27.807)" fill="#9788A4" width="180" height="36"/>
<rect x="228" y="602" transform="matrix(0.7071 0.7071 -0.7071 0.7071 531.5463 -43.2662)" fill="#9788A4" width="180" height="36"/>
<rect x="788" y="602" transform="matrix(0.7071 -0.7071 0.7071 0.7071 -181.246 802.4336)" fill="#9788A4" width="180" height="36"/>
<rect x="963" y="427" transform="matrix(0.7071 -0.7071 0.7071 0.7071 -6.2459 874.921)" fill="#9788A4" width="180" height="36"/>
<rect x="114.3" y="216.3" transform="matrix(0.7071 0.7071 -0.7071 0.7071 310.1249 -68.7077)" fill="#FFFFFF" width="247.5" height="247.5"/>
<rect x="293.3" y="397.3" transform="matrix(0.7071 0.7071 -0.7071 0.7071 490.5391 -142.2662)" fill="#FFFFFF" width="247.5" height="247.5"/>
<polygon fill="#A18584" points="248,164 417,333 586.1,164 "/>
<polygon fill="#D3E1BD" points="767,696.5 598,527.5 429,696.5 "/>
<polygon fill="#9788A4" points="612,164 781,333 950.1,164 "/>
<rect x="656.3" y="397.3" transform="matrix(0.7071 0.7071 -0.7071 0.7071 596.8594 -398.9459)" fill="#FFFFFF" width="247.5" height="247.5"/>
<rect x="839.3" y="216.3" transform="matrix(0.7071 0.7071 -0.7071 0.7071 522.4725 -581.3602)" fill="#FFFFFF" width="247.5" height="247.5"/>
<rect x="474.3" y="216.3" transform="matrix(0.7071 0.7071 -0.7071 0.7071 415.5665 -323.2662)" fill="#FFFFFF" width="247.5" height="247.5"/>
<line fill="none" x1="585" y1="162" x2="586.1" y2="164"/>
<line fill="none" x1="90" y1="675" x2="81" y2="675"/>
</svg>
